#!OML:ASF H:\Dans Jumps\Project 1\Capture day 1\Session 1\subject.ASF
:FULLY-SPECIFIED
:DEGREES
501
root 0.732646 17.6334 2.71231 7.9591 -1.26879 -1.58878
lowerback 0.763105 0.282521 -0.123408
upperback 3.28643 0.338707 1.59579
thorax 2.93531 0.141664 1.71495
lowerneck -12.7817 -0.0801509 -1.84302
upperneck 28.7863 0.300603 0.174649
head 11.4685 -0.0421224 0.422977
rclavicle 8.49804e-015 1.86858e-014
rhumerus -20.7751 -12.2686 -83.6837
rradius 25.633
rwrist 31.2998
rhand -21.3385 -26.0969
rfingers 7.12502
rthumb 5.04751 -56.0168
lclavicle 8.49804e-015 1.86858e-014
lhumerus -20.4238 2.67452 85.5072
lradius 17.8803
lwrist 2.90191
lhand -26.703 -5.7474
lfingers 7.12502
lthumb -0.133209 24.2323
rfemur -18.3774 -1.37614 20.5818
rtibia 26.2672
rfoot -14.2113 -1.42694
rtoes 13.1278
lfemur -17.8411 6.10383 -18.3023
ltibia 23.866
lfoot -10.9522 4.68372
ltoes -3.93372
502
root 0.732086 17.6351 2.72164 7.95531 -1.23289 -1.56049
lowerback 0.713237 0.285589 -0.11589
upperback 3.25975 0.342885 1.58923
thorax 2.93577 0.144175 1.70421
lowerneck -12.7997 -0.0923243 -1.83378
upperneck 28.6924 0.287181 0.153957
head 11.4361 -0.0489045 0.411745
rclavicle -2.28602e-015 -5.36719e-015
rhumerus -20.5731 -11.946 -83.8538
rradius 25.8715
rwrist 31.0088
rhand -21.3727 -26.1194
rfingers 7.12502
rthumb 5.01446 -56.0401
lclavicle -2.28602e-015 -5.36719e-015
lhumerus -20.3235 2.85909 85.5069
lradius 17.8641
lwrist 2.84827
lhand -26.7198 -5.76997
lfingers 7.12502
lthumb -0.149447 24.2097
rfemur -18.3063 -1.37789 20.5513
rtibia 26.216
rfoot -14.2211 -1.46587
rtoes 13.1142
lfemur -17.7557 6.08533 -18.3274
ltibia 23.7677
lfoot -10.9481 4.6577
ltoes -3.92228
503
root 0.731408 17.6369 2.73092 7.95044 -1.19393 -1.52902
lowerback 0.661441 0.287463 -0.11484
upperback 3.23496 0.345502 1.5824
thorax 2.93931 0.145715 1.69683
lowerneck -12.8188 -0.105497 -1.82536
upperneck 28.5975 0.271633 0.136255
head 11.4035 -0.056371 0.401487
rclavicle -6.01324e-015 -1.07344e-014
rhumerus -20.3779 -11.6354 -84.0128
rradius 26.1009
rwrist 30.7332
rhand -21.41 -26.1434
rfingers 7.12502
rthumb 4.97852 -56.0649
lclavicle -6.01324e-015 -1.07344e-014
lhumerus -20.2232 3.01425 85.5161
lradius 17.8573
lwrist 2.83007
lhand -26.7523 -5.8056
lfingers 7.12502
lthumb -0.180848 24.1741
rfemur -18.2338 -1.38462 20.5184
rtibia 26.1652
rfoot -14.2332 -1.5043
rtoes 13.0993
lfemur -17.6678 6.06418 -18.3554
ltibia 23.665
lfoot -10.9404 4.63087
ltoes -3.91139
504
root 0.730572 17.6387 2.74009 7.94463 -1.14978 -1.49887
lowerback 0.610505 0.287234 -0.117013
upperback 3.21018 0.345301 1.57794
thorax 2.94242 0.145729 1.69363
lowerneck -12.8361 -0.11873 -1.81946
upperneck 28.4995 0.255269 0.122883
head 11.3695 -0.0639355 0.393156
rclavicle -4.96962e-017 7.95139e-015
rhumerus -20.1823 -11.3542 -84.1563
rradius 26.3024
rwrist 30.4962
rhand -21.4458 -26.1712
rfingers 7.12502
rthumb 4.94388 -56.0935
lclavicle -4.96962e-017 7.95139e-015
lhumerus -20.1306 3.14015 85.5352
lradius 17.8647
lwrist 2.83918
lhand -26.7992 -5.8756
lfingers 7.12502
lthumb -0.22614 24.104
rfemur -18.1585 -1.39657 20.4881
rtibia 26.1117
rfoot -14.246 -1.54233
rtoes 13.0872
lfemur -17.5792 6.04144 -18.3807
ltibia 23.5596
lfoot -10.9301 4.60047
ltoes -3.90102
